<?xml version="1.0" standalone="no"?>
<!DOCTYPE svg PUBLIC "-//W3C//DTD SVG 1.1//EN" "http://www.w3.org/Graphics/SVG/1.1/DTD/svg11.dtd" >
<svg xmlns="http://www.w3.org/2000/svg">
<metadata></metadata>
<defs>
<font id="pf_din_text_cond_probold" horiz-adv-x="992" >
<font-face units-per-em="2048" ascent="1536" descent="-512" />
<missing-glyph horiz-adv-x="501" />
<glyph horiz-adv-x="2048" />
<glyph horiz-adv-x="2048" />
<glyph unicode="&#xd;" horiz-adv-x="674" />
<glyph unicode=" "  horiz-adv-x="501" />
<glyph unicode="&#x09;" horiz-adv-x="501" />
<glyph unicode="&#xa0;" horiz-adv-x="501" />
<glyph unicode="!" horiz-adv-x="520" d="M122 1058h277l-20 -733h-239zM124 0v248h273v-248h-273z" />
<glyph unicode="&#x22;" horiz-adv-x="729" d="M95 959v452h217v-452h-217zM408 959v452h221v-452h-221z" />
<glyph unicode="#" d="M56 352v167h155l33 170h-128v166h153l60 343h196l-59 -343h142l59 343h196l-58 -343h132v-166h-161l-28 -170h134v-167h-164l-57 -352h-199l59 352h-140l-60 -352h-201l62 352h-126zM408 519h143l31 170h-142z" />
<glyph unicode="$" d="M56 231l220 132q77 -101 164 -121v257q-90 31 -152.5 63t-103 73.5t-60 94.5t-19.5 125q0 149 91.5 245t243.5 113v109h98v-109q117 -10 198 -64t134 -133l-187 -146q-35 41 -70 62t-75 31v-221q97 -40 165.5 -76.5t111 -81t62 -99.5t19.5 -129q0 -162 -92 -256 t-266 -106v-154h-98v154q-136 6 -225 68t-159 169zM367 868q0 -28 19.5 -47.5t53.5 -35.5v176q-73 -21 -73 -93zM538 244q46 9 64.5 38.5t18.5 65.5q0 41 -21.5 66.5t-61.5 45.5v-216z" />
<glyph unicode="%" horiz-adv-x="1387" d="M93 698v324q0 44 18.5 79t50 59t73 37.5t86.5 13.5q93 0 160.5 -50t67.5 -139v-324q0 -89 -67.5 -139t-160.5 -50q-45 0 -86.5 13.5t-73 37.5t-50 58t-18.5 80zM263 -29l674 1260h189l-676 -1260h-187zM271 702q0 -41 48 -41t48 41v314q0 42 -48 42q-47 0 -48 -42v-314z M840 186v321q0 44 18 81t49.5 61t73 37.5t85.5 13.5q91 0 159.5 -51t68.5 -142v-321q0 -44 -18.5 -79.5t-50 -59.5t-73 -37.5t-86.5 -13.5q-46 0 -86.5 13.5t-72 37.5t-49.5 59.5t-18 79.5zM1018 191q0 -41 46 -41q49 0 49 41v312q0 44 -49 44q-46 0 -46 -44v-312z" />
<glyph unicode="&#x26;" horiz-adv-x="1051" d="M99 288q0 87 41.5 159t116.5 137q-30 43 -54.5 92.5t-24.5 118.5q0 120 82.5 195.5t234.5 75.5q91 0 173 -27t160 -104l-165 -165q-46 45 -88.5 59t-77.5 14q-27 0 -43 -14t-16 -34q0 -25 12 -47t39 -55l198 -253q8 19 14.5 48t8.5 67l241 -32q-6 -83 -29.5 -155 t-60.5 -128q12 -14 40 -49t58 -73.5t57.5 -72t39.5 -45.5h-324l-51 62q-118 -71 -249 -70q-84 0 -146.5 22.5t-104 62t-62 94t-20.5 117.5zM361 296q0 -29 20.5 -53t66.5 -24q23 0 45 9.5t39 22.5l-124 148q-23 -27 -35 -50.5t-12 -52.5z" />
<glyph unicode="'" horiz-adv-x="466" d="M128 959v452h217v-452h-217z" />
<glyph unicode="(" horiz-adv-x="679" d="M122 621q0 127 27 245.5t73.5 228.5t109.5 209t134 188l175 -97q-61 -91 -106.5 -188.5t-76 -195.5t-46 -194.5t-15.5 -185.5q0 -97 16.5 -198.5t48 -202t76 -196.5t101.5 -182l-159 -111q-77 93 -142 195.5t-113.5 213.5t-75.5 229t-27 242z" />
<glyph unicode=")" horiz-adv-x="679" d="M110 1395l174 97q71 -89 133.5 -188t110.5 -209t75.5 -228.5t27.5 -245.5q0 -124 -27.5 -242t-76.5 -229t-115 -213.5t-141 -195.5l-159 111q56 85 101.5 181.5t77.5 197t47.5 202t15.5 198.5q0 89 -14.5 185.5t-46.5 194.5t-77.5 195.5t-105.5 188.5z" />
<glyph unicode="*" horiz-adv-x="869" d="M77 1066l61 187l223 -91l-24 245h205l-25 -245l221 91l63 -187l-238 -58l163 -189l-165 -117l-123 211l-130 -211l-162 117l162 189z" />
<glyph unicode="+" d="M39 489v231h338v338h238v-338h338v-231h-338v-341h-238v341h-338z" />
<glyph unicode="," horiz-adv-x="540" d="M112 -308l72 304h-66v325h310v-315l-165 -314h-151z" />
<glyph unicode="-" horiz-adv-x="834" d="M97 414v253h651v-253h-651z" />
<glyph unicode="." horiz-adv-x="532" d="M114 0v321h308v-321h-308z" />
<glyph unicode="/" horiz-adv-x="666" d="M-16 -85l446 1555h225l-448 -1555h-223z" />
<glyph unicode="0" d="M108 363v278q0 89 31 159t85 117.5t124 73t149 25.5t150 -25.5t123.5 -73t83 -117.5t30.5 -159v-278q0 -89 -31.5 -158t-84 -116.5t-122.5 -73t-149 -25.5t-150 25.5t-124 73t-84 116t-31 158.5zM391 365q0 -52 29.5 -79t76.5 -27q45 0 74 26.5t29 79.5v276 q0 52 -29 78.5t-74 26.5q-47 0 -76.5 -26.5t-29.5 -78.5v-276z" />
<glyph unicode="1" d="M116 0v261h242v414l-198 -143v306l227 166h256v-743h235v-261h-762z" />
<glyph unicode="2" d="M97 646q10 97 48.5 166.5t96.5 115t130.5 67t144.5 21.5q83 0 152 -23.5t118 -65t75 -100.5t26 -127q0 -53 -18.5 -103t-59 -102.5t-106 -109t-160.5 -124.5l1 -2h351v-259h-782v227q110 89 200 160t158 130q57 46 77 84t20 68q0 31 -18.5 49t-59.5 18q-10 0 -25.5 -3 t-32.5 -16t-33.5 -40t-26.5 -73z" />
<glyph unicode="3" d="M49 37l282 34q0 -40 9.5 -68t25 -42.5t35 -21t39.5 -6.5q42 0 75.5 30.5t33.5 107.5q0 91 -28 135.5t-107 44.5h-93v227h101q71 0 100 37.5t29 103.5q0 44 -22 87.5t-79 43.5q-17 0 -35 -6t-33 -21t-25.5 -44t-13.5 -73l-276 40q8 88 42.5 157t88 116.5t121.5 72 t141 24.5q116 0 191 -35t118.5 -89t59.5 -123t16 -138q0 -33 -6.5 -70.5t-22 -72t-41 -65t-59.5 -48.5v-17q48 -30 74.5 -64.5t39.5 -72t16 -79t3 -86.5q0 -83 -27 -153.5t-80 -122t-128.5 -81.5t-171.5 -30q-161 0 -269 88.5t-124 279.5z" />
<glyph unicode="4" d="M58 0v223l341 781h305l-327 -745h168v290h285v-290h91v-259h-91v-321h-285v321h-487z" />
<glyph unicode="5" d="M118 79h284q2 -85 30 -113t69 -28q60 0 77.5 59t17.5 147q0 85 -16.5 141t-80.5 56q-23 0 -55 -17.5t-51 -70.5h-249v753h717v-260h-445v-206h2q40 32 88.5 41t73.5 9q85 0 144 -29t94 -86t51.5 -137.5t16.5 -181.5q0 -113 -20.5 -203.5t-66 -153t-118.5 -96.5t-178 -34 q-81 0 -151 18.5t-121 64t-81 125.5t-32 202z" />
<glyph unicode="6" d="M114 404q0 69 11 134.5t35 120.5q76 161 156.5 334t153.5 333h319l-89 -200l-155 -339q16 6 30.5 8t28.5 2q62 -2 113 -22.5t87 -65t55 -114.5t19 -169q0 -209 -94.5 -322.5t-296.5 -113.5q-176 0 -274.5 102.5t-98.5 311.5zM397 412q0 -87 21.5 -123t72.5 -36 q58 0 77.5 44t19.5 137q0 77 -21.5 108.5t-67.5 31.5q-49 0 -75.5 -37.5t-26.5 -124.5z" />
<glyph unicode="7" d="M105 592v414h760v-236l-411 -1091h-296l391 1065h-170v-152h-274z" />
<glyph unicode="8" d="M99 395q0 39 6.5 81.5t21.5 82t42.5 74t70.5 56.5v2q-78 39 -103 112t-25 148q0 86 25 156.5t73.5 121t118.5 79t160 28.5q178 0 280.5 -93.5t102.5 -291.5q0 -75 -26.5 -147t-101.5 -111v-4q43 -18 70.5 -51.5t42.5 -74t21 -85t6 -83.5q0 -108 -31.5 -184.5t-86 -125 t-127 -72t-150.5 -23.5q-79 0 -150.5 24.5t-125 74t-84 125.5t-30.5 181zM383 418q0 -89 27 -125t81 -36q58 0 83.5 44t25.5 121q0 69 -26.5 107t-82.5 38q-54 0 -81 -41.5t-27 -107.5zM397 942q0 -77 24 -106t72 -29q52 0 73.5 36.5t21.5 102.5q0 59 -22 92.5t-73 33.5 q-48 0 -72 -34t-24 -96z" />
<glyph unicode="9" d="M114 582q0 209 95 320.5t298 111.5q199 0 286 -107.5t87 -300.5q0 -35 -4 -73t-11.5 -73.5t-16 -67t-16.5 -49.5l-311 -664h-318l243 540q-13 -4 -33 -7t-30 -3q-60 2 -111 23t-85.5 66t-53.5 114.5t-19 169.5zM404 559q0 -69 21 -98t66 -29q53 0 76 37.5t27 122.5 q0 85 -18.5 121.5t-66.5 36.5q-61 0 -83 -43.5t-22 -147.5z" />
<glyph unicode=":" horiz-adv-x="538" d="M116 0v321h308v-321h-308zM116 536v317h308v-317h-308z" />
<glyph unicode=";" horiz-adv-x="544" d="M114 -308l72 304h-66v325h310v-315l-165 -314h-151zM120 536v317h308v-317h-308z" />
<glyph unicode="&#x3c;" d="M37 505v207l916 420v-269l-608 -257l603 -256v-267z" />
<glyph unicode="=" d="M37 288v225h916v-225h-916zM37 702v225h916v-225h-916z" />
<glyph unicode="&#x3e;" d="M39 863v269l916 -420v-207l-912 -422v267l605 256z" />
<glyph unicode="?" horiz-adv-x="853" d="M54 726q14 164 118 252t260 88q180 0 272.5 -82t92.5 -222q0 -60 -18.5 -106t-45.5 -82t-58.5 -69t-57.5 -69q-14 -20 -23.5 -40.5t-9.5 -43.5v-42h-280v69q0 66 25 117t79 110q25 31 39.5 53t23.5 39.5t12.5 31.5t3.5 32q0 20 -15.5 37.5t-53.5 17.5q-35 0 -61 -27.5 t-28 -91.5zM308 0v248h274v-248h-274z" />
<glyph unicode="@" horiz-adv-x="1755" d="M126 677q0 170 56 315.5t158 252.5t245 168t319 61q172 0 307 -53t227.5 -145t140 -219.5t47.5 -278.5q0 -118 -27.5 -214t-78 -163.5t-125.5 -105.5t-168 -38q-23 0 -53.5 6t-61.5 20.5t-59.5 37t-42.5 54.5l-8 2q-33 -50 -92 -82t-123 -32q-122 0 -187.5 68t-65.5 186 q0 52 16.5 99t52.5 82.5t89.5 55.5t126.5 20h134v43q0 28 -19 55.5t-87 27.5q-42 0 -71.5 -15t-57.5 -55l-163 105q49 91 131 131.5t184 40.5q66 0 122 -13t98 -44.5t66 -83t24 -126.5v-4l-2 -309q0 -31 21.5 -56t55.5 -25q83 0 128 82t45 248q0 116 -37 212.5t-104.5 164.5 t-165 105.5t-217.5 37.5q-140 0 -247.5 -51t-182.5 -136t-113 -197.5t-38 -236.5q0 -143 42.5 -257t120 -194t185 -123t238.5 -43q120 0 213 25t194 77l73 -174q-118 -50 -229.5 -79t-240.5 -29q-171 0 -317 49.5t-251 150t-165 250.5t-60 349zM762 534q0 -25 18.5 -48.5 t68.5 -23.5q43 0 73.5 24.5t30.5 72.5v53h-104q-46 0 -66.5 -21.5t-20.5 -56.5z" />
<glyph unicode="A" horiz-adv-x="1124" d="M6 0l408 1411h292l407 -1411h-316l-69 288h-335q-18 -71 -37 -144t-40 -144h-310zM458 549h203l-38 201l-58 282h-10l-56 -280z" />
<glyph unicode="B" horiz-adv-x="1098" d="M124 0v1411h456q207 0 314.5 -105.5t107.5 -291.5q0 -79 -38.5 -157.5t-127.5 -114.5v-10q48 -16 82.5 -49t57 -74.5t32.5 -88t10 -90.5q0 -103 -30.5 -183.5t-85.5 -135.5t-132 -83t-170 -28h-476zM418 278h162q87 0 119.5 48.5t32.5 119.5q0 72 -35.5 114t-114.5 42 h-164v-324zM418 857h145q81 0 116 41t35 106q0 71 -35 105t-118 34h-143v-286z" />
<glyph unicode="C" horiz-adv-x="1041" d="M91 466v503q0 79 24.5 159.5t78.5 145t140 106.5t210 42q97 0 174 -30t131.5 -78.5t89 -112t48.5 -133.5l-277 -83q-4 20 -13.5 47.5t-30 50t-50.5 39t-72 16.5q-45 0 -75.5 -15.5t-48.5 -39t-26.5 -50.5t-8.5 -52v-523q0 -81 35.5 -134t123.5 -53q60 0 107 39.5 t55 109.5l279 -81q-31 -165 -150 -258t-291 -93q-122 0 -208.5 38.5t-140 104.5t-79 153t-25.5 182z" />
<glyph unicode="D" horiz-adv-x="1118" d="M124 0v1411h466q142 0 242.5 -52.5t146.5 -174.5q29 -71 34 -175.5t5 -232.5q0 -184 -2 -312.5t-37 -219.5q-27 -72 -68 -118.5t-96 -73.5t-118.5 -39.5t-133.5 -12.5h-439zM416 271h124q111 0 148.5 57t37.5 156v342q0 60 -6 117t-25.5 100.5t-57 69t-99.5 25.5h-122 v-867z" />
<glyph unicode="E" d="M124 0v1411h820v-272h-526v-292h454v-269h-454v-300h526v-278h-820z" />
<glyph unicode="F" horiz-adv-x="973" d="M124 0v1411h820v-272h-526v-297h454v-268h-454v-574h-294z" />
<glyph unicode="G" horiz-adv-x="1091" d="M101 466v503q0 79 24.5 159.5t78 145t140 106.5t209.5 42q97 0 174.5 -30t132.5 -78.5t89 -112t49 -133.5l-278 -83q-4 20 -13 47.5t-29.5 50t-51 39t-73.5 16.5q-44 0 -74.5 -15.5t-48.5 -39t-26.5 -50.5t-8.5 -52v-523q0 -79 35.5 -134t120.5 -55q93 0 131 46t38 111 v110h-190v249h482v-307q0 -110 -28.5 -200t-86 -155t-144 -100t-200.5 -35q-121 0 -207.5 38.5t-140 104.5t-79 153t-25.5 182z" />
<glyph unicode="H" horiz-adv-x="1149" d="M122 0v1411h294v-564h320v564h290v-1411h-290v580h-320v-580h-294z" />
<glyph unicode="I" horiz-adv-x="542" d="M128 0v1411h294v-1411h-294z" />
<glyph unicode="J" horiz-adv-x="883" d="M-16 168l192 197q18 -28 41 -47.5t46 -32t45.5 -17.5t37.5 -5q63 0 96.5 41.5t33.5 105.5v1001h292v-1012q0 -110 -32 -186.5t-88 -126t-132 -73t-162 -23.5q-109 0 -203.5 40.5t-166.5 137.5z" />
<glyph unicode="K" horiz-adv-x="1118" d="M122 0v1411h294v-523h10q18 27 36 58t52.5 87t92.5 145t155 233h349l-393 -577q105 -209 210.5 -417t212.5 -417h-332q-71 140 -137 280t-136 281l-120 -184v-377h-294z" />
<glyph unicode="L" horiz-adv-x="977" d="M124 0v1411h294v-1133h526v-278h-820z" />
<glyph unicode="M" horiz-adv-x="1382" d="M118 0v1411h269l164 -393l140 -353h11l136 355l162 391h275v-1411h-292v665l-8 2l-97 -253l-75 -183h-211l-79 195l-95 243l-8 -2v-667h-292z" />
<glyph unicode="N" horiz-adv-x="1207" d="M120 0v1411h259l231 -422l185 -341l6 2v761h292v-1411h-257l-262 470l-154 298l-6 -2v-766h-294z" />
<glyph unicode="O" horiz-adv-x="1084" d="M89 466v503q0 79 24.5 159.5t79.5 145t141 106.5t210 42q115 0 200.5 -40t140 -103.5t82 -145t27.5 -164.5v-524q0 -105 -33.5 -190t-93.5 -145t-142 -91t-181 -31q-122 0 -208.5 38.5t-141 104.5t-80 153t-25.5 182zM381 458q0 -81 37.5 -134t125.5 -53q62 0 108 40.5 t46 112.5v557q0 20 -7.5 46.5t-26 51t-47.5 42t-73 17.5q-45 0 -75.5 -15.5t-50 -39t-28.5 -50.5t-9 -52v-523z" />
<glyph unicode="P" horiz-adv-x="1051" d="M124 0v1411h448q99 0 183.5 -26.5t144 -81t93 -138.5t33.5 -200q0 -101 -30.5 -184t-87.5 -142t-138 -91.5t-182 -32.5h-170v-515h-294zM418 789h156q66 0 115 40.5t49 139.5q0 91 -45 130.5t-121 39.5h-154v-350z" />
<glyph unicode="Q" horiz-adv-x="1098" d="M99 466v503q0 79 24.5 159.5t79 145t141 106.5t209.5 42q116 0 201.5 -40t139.5 -103.5t82 -145t28 -164.5v-524q0 -122 -43 -216l142 -117l-136 -157l-139 114q-112 -81 -275 -81q-121 0 -207.5 38.5t-141 104.5t-80 153t-25.5 182zM391 458q0 -81 37.5 -134t124.5 -53 q16 0 25 2l-48 118l62 73l112 -19l4 -5v541q0 20 -7.5 46.5t-25.5 51t-47.5 42t-74.5 17.5q-44 0 -74.5 -15.5t-49.5 -39t-28.5 -50.5t-9.5 -52v-523z" />
<glyph unicode="R" horiz-adv-x="1112" d="M124 0v1411h466q89 0 169.5 -24.5t140 -75t94 -128.5t34.5 -187q0 -136 -52.5 -233.5t-154.5 -152.5l227 -610h-318l-188 557h-124v-557h-294zM418 826h158q71 0 120.5 37.5t49.5 130.5q0 81 -45.5 115t-116.5 34h-166v-317z" />
<glyph unicode="S" horiz-adv-x="1072" d="M62 229l232 187q54 -77 114 -114t137 -37q94 0 129.5 40.5t35.5 100.5q0 40 -19.5 69.5t-53 51.5t-78 38.5t-97.5 30.5q-97 31 -166 69.5t-112.5 87t-64 111.5t-20.5 142q0 91 32.5 167t91.5 131.5t141 86.5t181 31q161 0 263.5 -50t172.5 -147l-211 -199 q-101 119 -225 119q-65 0 -106.5 -34.5t-41.5 -90.5q0 -31 20.5 -55.5t55 -44.5t81 -38.5t98.5 -34.5q105 -32 176.5 -73.5t114 -95t60 -118.5t17.5 -142q0 -203 -125 -315.5t-353 -112.5q-90 0 -162 18.5t-129.5 49.5t-104.5 74.5t-84 96.5z" />
<glyph unicode="T" horiz-adv-x="927" d="M12 1143v268h897v-268h-303v-1143h-292v1143h-302z" />
<glyph unicode="U" horiz-adv-x="1116" d="M108 466v945h291v-953q0 -81 37.5 -134t124.5 -53q63 0 109 43.5t46 115.5v981h296v-966q0 -105 -34 -190t-93 -145t-141.5 -91t-182.5 -31q-121 0 -207.5 38.5t-141 104.5t-79.5 153t-25 182z" />
<glyph unicode="V" horiz-adv-x="1068" d="M4 1411h317l131 -585l80 -390h10l75 383l131 592h314l-383 -1411h-292z" />
<glyph unicode="W" horiz-adv-x="1515" d="M8 1409h321q22 -130 44 -256.5t43 -254.5q12 -71 22 -141t22 -140h8q23 97 43.5 195.5t41.5 195.5l91 401h230q25 -101 47.5 -201.5t45.5 -201.5q23 -99 44 -198.5t43 -199.5h10q10 71 20.5 140t20.5 140l83 521h321l-298 -1411h-265q-26 110 -54.5 220.5t-53.5 219.5 l-74 303h-8q-17 -78 -35.5 -154t-39.5 -153q-25 -110 -55 -219.5t-57 -216.5h-263z" />
<glyph unicode="X" horiz-adv-x="1093" d="M2 0l385 728l-360 683h338q45 -97 88.5 -194.5t88.5 -192.5l182 387h338l-364 -683l389 -728h-339l-203 430l-206 -430h-337z" />
<glyph unicode="Y" horiz-adv-x="1033" d="M10 1416h327l93 -288l83 -271h12l87 273l104 281h312l-365 -846v-565h-288v565z" />
<glyph unicode="Z" horiz-adv-x="921" d="M50 0v255l480 888h-457v268h799v-247l-477 -886h477v-278h-822z" />
<glyph unicode="[" horiz-adv-x="581" d="M130 -199v1615h417v-207h-156v-1203h156v-205h-417z" />
<glyph unicode="\" horiz-adv-x="666" d="M-6 1470h225l446 -1555h-223z" />
<glyph unicode="]" horiz-adv-x="581" d="M35 4h153v1205h-153v207h415v-1617h-415v205z" />
<glyph unicode="^" d="M27 549l364 860h207q91 -215 182.5 -430t184.5 -430h-265l-203 534l-205 -534h-265z" />
<glyph unicode="_" horiz-adv-x="1013" d="M0 -140h1014v-185h-1014v185z" />
<glyph unicode="`" horiz-adv-x="913" d="M244 1449l245 102l196 -385l-155 -83z" />
<glyph unicode="a" horiz-adv-x="973" d="M8 0l340 1058h273l340 -1058h-290q-12 52 -27 102t-32 103h-256l-58 -205h-290zM414 446h139l-23 101l-41 177h-9l-42 -177z" />
<glyph unicode="b" horiz-adv-x="930" d="M101 0v1058h398q172 0 261 -77t89 -223q0 -24 -8.5 -53.5t-25 -57.5t-37 -53t-42.5 -39q60 -32 93.5 -97t33.5 -125q0 -63 -20 -123t-62.5 -107t-108.5 -75t-157 -28h-414zM375 249h112q41 0 76 22.5t35 69.5q0 46 -29 68.5t-76 22.5h-118v-183zM375 657h126 q35 0 58 24.5t23 59.5q0 36 -25 55t-64 19h-118v-158z" />
<glyph unicode="c" horiz-adv-x="881" d="M77 365v308q0 83 22.5 155t69 125t117.5 83t170 30q88 0 151.5 -22t109 -62t74 -94t43.5 -122l-252 -87q-6 59 -36.5 95.5t-81.5 36.5q-34 0 -56.5 -12t-36 -31.5t-18.5 -42.5t-5 -44v-325q0 -40 27 -76t83 -36q49 0 80 34t40 99l264 -67q-25 -149 -125 -234.5 t-259 -85.5q-195 0 -288 101.5t-93 273.5z" />
<glyph unicode="d" horiz-adv-x="946" d="M103 0v1058h396q136 0 223 -59t120 -171q15 -53 17 -127t2 -165q0 -99 -4 -193t-25 -148q-23 -56 -59.5 -94.5t-82.5 -60.5t-99 -31t-113 -9h-375zM375 249h83q78 0 105 37t27 95v296q0 49 -26 89.5t-92 40.5h-97v-558z" />
<glyph unicode="e" horiz-adv-x="847" d="M101 0v1058h700v-247h-426v-152h367v-245h-367v-165h426v-249h-700z" />
<glyph unicode="f" horiz-adv-x="838" d="M101 0v1058h700v-247h-426v-159h367v-244h-367v-408h-274z" />
<glyph unicode="g" horiz-adv-x="923" d="M85 387v296q0 81 23.5 152t70 123t118.5 81t169 29q87 0 151 -23t109.5 -64.5t73.5 -98t42 -124.5q-63 -17 -125 -37.5t-125 -39.5q-8 59 -39.5 95.5t-82.5 36.5q-36 0 -58.5 -15t-34.5 -38.5t-16.5 -52t-4.5 -52.5v-251q0 -25 3.5 -53t15.5 -51.5t33.5 -38.5t57.5 -15 q59 0 87.5 40.5t32.5 92.5h-122v221h391v-203q0 -89 -23 -163t-70.5 -128t-120 -84t-169.5 -30q-110 0 -183.5 33t-119 89t-65 127t-19.5 146z" />
<glyph unicode="h" horiz-adv-x="973" d="M103 0v1058h274v-399h223v399h270v-1058h-270v414h-223v-414h-274z" />
<glyph unicode="i" horiz-adv-x="463" d="M97 0v1058h274v-1058h-274z" />
<glyph unicode="j" horiz-adv-x="762" d="M-4 152l184 183q35 -39 64 -60.5t64 -21.5q42 0 72 24.5t30 83.5v697h269v-721q0 -84 -27 -148.5t-72.5 -108t-105.5 -66t-128 -22.5q-46 0 -91.5 5t-90 22.5t-87 48.5t-81.5 84z" />
<glyph unicode="k" horiz-adv-x="979" d="M103 0v1058h276v-367l77 110q53 73 94.5 129.5t93.5 127.5h321l-338 -443l356 -615h-314l-217 404q-17 -25 -37 -49t-38 -51v-304h-274z" />
<glyph unicode="l" horiz-adv-x="828" d="M101 0v1058h274v-809h426v-249h-700z" />
<glyph unicode="m" horiz-adv-x="1175" d="M101 0v1058h245l118 -257l124 -278h8l124 288l112 247h247v-1058h-272v476h-6l-63 -166l-53 -126h-186l-49 120l-67 174l-8 -2v-476h-274z" />
<glyph unicode="n" horiz-adv-x="1021" d="M99 0v1058h238l180 -298q32 -52 63.5 -109t62.5 -107l9 3v511h271v-1058h-232q-41 71 -81.5 139t-79.5 137q-37 61 -74.5 125.5t-78.5 128.5h-4v-530h-274z" />
<glyph unicode="o" horiz-adv-x="917" d="M73 367v322q0 172 98 274.5t287 102.5q188 0 288.5 -99t100.5 -278v-322q0 -182 -102 -279.5t-287 -97.5q-95 0 -167 27.5t-120.5 77t-73 118.5t-24.5 154zM346 369q0 -46 22.5 -87.5t87.5 -41.5q53 0 84.5 37t31.5 92v312q0 62 -31.5 98t-84.5 36q-48 0 -79 -35.5 t-31 -98.5v-312z" />
<glyph unicode="p" horiz-adv-x="895" d="M103 0v1058h377q172 0 272.5 -85t100.5 -265q0 -79 -26 -143t-73.5 -110.5t-114.5 -72.5t-146 -26h-116v-356h-274zM377 600h97q47 0 80.5 27.5t33.5 82.5q0 101 -114 101h-97v-211z" />
<glyph unicode="q" horiz-adv-x="930" d="M77 367v322q0 172 98 274.5t287 102.5q188 0 288.5 -99t100.5 -278v-322q0 -110 -40 -191l104 -75l-104 -144l-118 88q-95 -55 -231 -55q-95 0 -167 27.5t-120.5 77t-73 118.5t-24.5 154zM350 369q0 -46 22.5 -87.5t87.5 -41.5h6l-42 68l52 75l98 -40q0 5 1 11.5t1 14.5 v312q0 62 -31.5 98t-84.5 36q-48 0 -79 -35.5t-31 -98.5v-312z" />
<glyph unicode="r" horiz-adv-x="950" d="M122 0v1058h391q75 0 141 -19t113.5 -60.5t75 -103.5t27.5 -147q0 -97 -42.5 -173.5t-117.5 -120.5l176 -434h-282l-144 385h-67v-385h-271zM393 627h106q48 0 76.5 25t28.5 72q0 42 -26.5 66.5t-78.5 24.5h-106v-188z" />
<glyph unicode="s" horiz-adv-x="907" d="M56 176l182 174q44 -54 104 -81t120 -27q66 0 89 20t23 52q0 40 -48 61.5t-129 42.5q-152 38 -230 116t-78 210q0 149 99.5 235.5t269.5 86.5q76 0 134 -13.5t104 -38.5t78.5 -55t51.5 -63l-183 -158q-47 46 -91.5 63.5t-85.5 17.5q-44 0 -73.5 -17t-29.5 -48 q0 -30 55.5 -54.5t132.5 -47.5q88 -24 145.5 -56.5t93.5 -73t49.5 -90t13.5 -107.5q0 -72 -25 -132.5t-75.5 -105t-124 -70t-170.5 -25.5q-77 0 -136 13t-106.5 36.5t-86 58t-73.5 76.5z" />
<glyph unicode="t" horiz-adv-x="802" d="M18 815v243h758v-243h-242v-815h-273v815h-243z" />
<glyph unicode="u" horiz-adv-x="944" d="M87 352v706h274v-693q0 -58 32.5 -88.5t78.5 -30.5q47 0 79.5 27t32.5 85v700h275v-712q0 -83 -28 -148.5t-78.5 -111t-123 -70t-157.5 -24.5t-155.5 24.5t-121.5 71t-79.5 113t-28.5 151.5z" />
<glyph unicode="v" horiz-adv-x="930" d="M6 1058h296l112 -448l48 -229h6l49 227l112 450h294l-327 -1058h-261z" />
<glyph unicode="w" horiz-adv-x="1300" d="M16 1060h298l63 -362l35 -222l8 2l46 220l85 362h205l87 -383l49 -199h6l31 213l58 369h300l-253 -1060h-237l-85 306l-55 238h-9l-62 -250l-77 -294h-238z" />
<glyph unicode="x" horiz-adv-x="938" d="M-2 0q79 138 160.5 274t160.5 273l-301 511h317q32 -73 65.5 -144.5t65.5 -145.5l134 290h317l-307 -511l327 -547h-316l-153 316h-2l-156 -316h-312z" />
<glyph unicode="y" horiz-adv-x="907" d="M16 1058h294l75 -199l65 -184h12l63 180l75 203h290l-300 -644v-414h-271v414z" />
<glyph unicode="z" horiz-adv-x="790" d="M49 0v221l361 594h-350v243h684v-213l-363 -596h363v-249h-695z" />
<glyph unicode="{" horiz-adv-x="581" d="M23 517v189q67 4 102 45.5t35 132.5v278q0 116 67 182.5t164 66.5h168v-200h-64q-33 0 -54 -29t-21 -75v-256q0 -89 -39.5 -148t-98.5 -88q63 -35 100.5 -92t37.5 -154v-239q0 -25 2 -48.5t9 -41t22 -29t42 -11.5h64v-199h-168q-97 0 -164 67t-67 182v289 q0 91 -36.5 133.5t-100.5 44.5z" />
<glyph unicode="|" horiz-adv-x="524" d="M144 -395v1875h235v-1875h-235z" />
<glyph unicode="}" horiz-adv-x="581" d="M25 0h64q27 0 42 11.5t22 29t9 41t2 48.5v239q0 97 38 154t100 92q-58 29 -98 88t-40 148v256q0 46 -21 75t-54 29h-64v200h168q97 0 164 -67t67 -182v-278q0 -91 35.5 -132.5t101.5 -45.5v-189q-65 -2 -101 -44.5t-36 -133.5v-289q0 -115 -67 -182t-164 -67h-168v199z " />
<glyph unicode="~" d="M50 507q57 120 125.5 182.5t170.5 62.5q43 0 84.5 -17t78 -37.5t69 -37t61.5 -16.5q71 0 154 110l151 -91q-58 -129 -126 -186t-145 -57q-44 0 -86.5 16t-81.5 36.5t-74.5 36.5t-65.5 16q-38 0 -77.5 -22.5t-88.5 -86.5z" />
<glyph unicode="&#xa2;" d="M152 505q0 91 16 169t53.5 137t98.5 94t152 41v143h75v-143q101 -7 178.5 -58.5t112.5 -145.5l-226 -99q-33 60 -65 71v-408q20 6 35.5 24t32.5 49l225 -103q-35 -91 -113.5 -142t-179.5 -59v-160h-75v160q-91 6 -152 40.5t-98.5 91t-53.5 133t-16 165.5zM420 505 q0 -77 10 -124.5t42 -66.5v392q-34 -23 -43 -74.5t-9 -126.5z" />
<glyph unicode="&#xa3;" d="M103 458v186h100l-23 70q-16 44 -27 86.5t-11 89.5q0 67 24.5 125.5t72 101t115.5 68.5t157 26q139 0 232 -60t145 -203l-233 -97q-28 66 -59 93t-77 27q-31 0 -65 -24t-34 -69q0 -29 9 -56t23 -60q10 -28 21 -55.5t20 -62.5h217v-186h-215q-6 -73 -20.5 -127.5 t-40.5 -105.5h429v-225h-753v197q48 60 74.5 119t34.5 142h-116z" />
<glyph unicode="&#xa5;" d="M41 1202h296l87 -251l69 -213h10l71 223l81 241h296l-256 -577h147v-141h-205l-8 -12v-44h213v-140h-213v-288h-266v288h-207v140h207v44l-9 12h-198v141h138z" />
<glyph unicode="&#xa8;" horiz-adv-x="873" d="M105 1132v263h270v-263h-270zM503 1132v263h271v-263h-271z" />
<glyph unicode="&#xa9;" horiz-adv-x="1544" d="M97 691q0 156 48 288t135 228.5t211 151t275 54.5t274.5 -53.5t211.5 -150t136 -228.5t48 -290q0 -154 -48 -284.5t-136 -227t-211.5 -150.5t-274.5 -54q-152 0 -275.5 53t-210.5 148t-135 227.5t-48 287.5zM271 691q0 -116 36 -218t100.5 -177t156 -118.5t202.5 -43.5 q114 0 206 43.5t156 118.5t98.5 177.5t34.5 217.5q0 122 -35.5 224.5t-99.5 178.5t-156 118.5t-204 42.5q-116 0 -207 -43.5t-154.5 -119.5t-98.5 -179.5t-35 -221.5zM478 544v257q0 65 17.5 123.5t52 102t89 69.5t129.5 26q116 0 192 -63t94 -161l-174 -53q-8 43 -35.5 71 t-74.5 28q-34 0 -55.5 -11.5t-32.5 -32t-15 -44.5t-4 -51v-256q0 -50 20.5 -93.5t84.5 -43.5q45 0 73.5 26t34.5 75q45 -14 88.5 -27.5t87.5 -25.5q-19 -105 -92.5 -164.5t-191.5 -59.5q-85 0 -141 26t-88 69.5t-45.5 98t-13.5 114.5z" />
<glyph unicode="&#xab;" horiz-adv-x="1145" d="M93 476l265 420h275l-262 -420l262 -420h-275zM532 476l265 420h273l-261 -420l261 -420h-273z" />
<glyph unicode="&#xae;" horiz-adv-x="1025" d="M87 967q0 99 31.5 182.5t88 144t136 95.5t176.5 35t176 -35t135 -95.5t87 -144t31 -182.5q0 -97 -32 -181t-89 -145t-136 -95.5t-172 -34.5q-99 0 -179.5 34.5t-136 95.5t-86 145t-30.5 181zM203 969q0 -75 22.5 -138t64 -109.5t100 -72.5t129.5 -26q73 0 130 26 t96.5 73.5t61 110.5t21.5 136t-21.5 137t-62 110.5t-97.5 74t-128 27.5q-73 0 -131.5 -27.5t-99 -74t-63 -110.5t-22.5 -137zM358 710v527h178q71 0 114 -42t43 -121q0 -42 -16 -79.5t-56 -63.5q6 -14 18.5 -46t27 -66t28 -64.5t19.5 -44.5h-126l-77 201h-39v-201h-114z M472 1014h58q56 0 56 60q0 57 -56 58h-58v-118z" />
<glyph unicode="&#xb4;" horiz-adv-x="913" d="M316 1155l189 396l243 -98l-274 -370z" />
<glyph unicode="&#xb8;" horiz-adv-x="905" d="M203 -389l46 124q47 -23 77 -29t59 -6q31 0 52 17.5t21 42.5q0 29 -17 42.5t-42 13.5q-16 0 -28 -7q-18 12 -36.5 22.5t-36.5 22.5l73 229q35 0 68 1t68 1l-55 -158q55 -6 90.5 -25.5t58 -44.5t31.5 -54.5t9 -55.5q0 -76 -52.5 -129.5t-168.5 -53.5q-55 2 -111 10 t-106 37z" />
<glyph unicode="&#xbb;" horiz-adv-x="1145" d="M93 56l261 420l-261 420h274l266 -420l-266 -420h-274zM534 56l261 420l-261 420h271l265 -420l-265 -420h-271z" />
<glyph unicode="&#x2c6;" horiz-adv-x="913" d="M97 1147l286 319h184l280 -317l-109 -99l-266 201q-18 -12 -55.5 -40.5t-79 -60t-78 -59t-54.5 -39.5z" />
<glyph unicode="&#x2da;" horiz-adv-x="936" d="M278 1281q0 45 18 85.5t48.5 71t72 48t90.5 17.5q48 0 90 -17.5t72.5 -48t47.5 -71t17 -85.5q0 -46 -17 -86t-48.5 -70t-73.5 -47.5t-90 -17.5q-47 0 -88.5 17.5t-72 47.5t-48.5 70t-18 86zM434 1279q0 -29 21 -48.5t52 -19.5q29 0 50 19.5t21 48.5t-21 49t-50 20 q-31 0 -52 -20t-21 -49z" />
<glyph unicode="&#x2dc;" horiz-adv-x="890" d="M79 1209q49 110 112.5 160.5t139.5 50.5q36 0 69.5 -14.5t64 -30t56.5 -28t48 -12.5q33 0 59.5 17.5t66.5 69.5q35 -18 68.5 -38t68.5 -40q-53 -115 -110 -162.5t-122 -47.5q-39 0 -73 12.5t-66.5 28t-61 29t-54.5 13.5q-31 0 -62.5 -18.5t-71.5 -70.5z" />
<glyph unicode="&#x401;" d="M124 0v1411h820v-272h-526v-292h454v-269h-454v-300h526v-278h-820zM197 1494v266h275v-266h-275zM592 1494v266h273v-266h-273z" />
<glyph unicode="&#x402;" horiz-adv-x="1292" d="M10 1145v264h943v-264h-365v-294l4 -2q41 45 113.5 74.5t141.5 29.5q103 0 171.5 -35.5t109 -98.5t56.5 -150t16 -191q0 -124 -20.5 -222t-74 -164.5t-147 -98.5t-238.5 -24v232q65 0 101 25t54.5 65t23.5 87.5t5 89.5q0 45 -5 85.5t-21.5 71t-45.5 48.5t-78 18 q-56 0 -103 -30t-65 -67v-594h-292v1145h-284z" />
<glyph unicode="&#x403;" horiz-adv-x="973" d="M124 0v1411h820v-272h-526v-1139h-294zM331 1610l350 261l170 -202l-415 -197z" />
<glyph unicode="&#x404;" horiz-adv-x="1041" d="M91 458.5v85.5v315v81.5t4 81.5q8 87 41.5 160t90.5 125.5t137.5 83.5t182.5 31q97 0 174.5 -27t134.5 -75.5t90 -114.5t43 -145l-281 -75q-10 67 -51.5 112.5t-111.5 45.5q-42 0 -72.5 -15t-49.5 -39.5t-28.5 -53.5t-9.5 -60v-130h310v-267h-310v-112q0 -34 5 -69.5 t21.5 -64t47 -48t81.5 -19.5q69 0 110 42.5t52 118.5q71 -18 143 -36.5t142 -39.5q-29 -166 -142 -264t-300 -98q-212 0 -322.5 101.5t-127.5 285.5q-4 41 -4 83.5z" />
<glyph unicode="&#x405;" horiz-adv-x="1072" d="M62 229l232 187q54 -77 114 -114t137 -37q94 0 129.5 40.5t35.5 100.5q0 40 -19.5 69.5t-53 51.5t-78 38.5t-97.5 30.5q-97 31 -166 69.5t-112.5 87t-64 111.5t-20.5 142q0 91 32.5 167t91.5 131.5t141 86.5t181 31q161 0 263.5 -50t172.5 -147l-211 -199 q-101 119 -225 119q-65 0 -106.5 -34.5t-41.5 -90.5q0 -31 20.5 -55.5t55 -44.5t81 -38.5t98.5 -34.5q105 -32 176.5 -73.5t114 -95t60 -118.5t17.5 -142q0 -203 -125 -315.5t-353 -112.5q-90 0 -162 18.5t-129.5 49.5t-104.5 74.5t-84 96.5z" />
<glyph unicode="&#x406;" horiz-adv-x="542" d="M128 0v1411h294v-1411h-294z" />
<glyph unicode="&#x407;" horiz-adv-x="542" d="M-73 1494v264h270v-264h-270zM128 0v1411h294v-1411h-294zM325 1494v264h271v-264h-271z" />
<glyph unicode="&#x408;" horiz-adv-x="883" d="M-16 168l192 197q18 -28 41 -47.5t46 -32t45.5 -17.5t37.5 -5q63 0 96.5 41.5t33.5 105.5v1001h292v-1012q0 -110 -32 -186.5t-88 -126t-132 -73t-162 -23.5q-109 0 -203.5 40.5t-166.5 137.5z" />
<glyph unicode="&#x409;" horiz-adv-x="1654" d="M10 199q79 29 122.5 70t65 100t26.5 139t5 185v718h769v-529h178q112 0 194.5 -32.5t136.5 -89t80.5 -136.5t26.5 -174q0 -111 -32.5 -195.5t-90 -141.5t-140 -85t-181.5 -28h-466v1138h-209v-434q0 -155 -14.5 -280.5t-58 -219.5t-126.5 -153t-219 -80zM996 271h163 q81 0 122 48t41 126q0 91 -43.5 127t-121.5 36h-161v-337z" />
<glyph unicode="&#x40a;" horiz-adv-x="1615" d="M114 0v1411h294v-535h261v535h294v-535h178q112 0 195.5 -31.5t137 -88t79.5 -135.5t26 -173q0 -113 -32 -196.5t-90 -140.5t-140 -84t-181 -27h-467v602h-261v-602h-294zM961 271h165q81 0 121 46t40 123q0 91 -43.5 126.5t-119.5 35.5h-163v-331z" />
<glyph unicode="&#x40b;" horiz-adv-x="1294" d="M29 1143v268h958v-268h-381v-292l6 -2q46 45 121.5 75.5t150.5 30.5q83 0 143 -25.5t99.5 -69t57.5 -104.5t18 -129v-627h-293v545q0 63 -27 105.5t-110 42.5q-40 0 -86.5 -24.5t-79.5 -66.5v-602h-294v1143h-283z" />
<glyph unicode="&#x40c;" horiz-adv-x="1112" d="M124 0v1413h294v-571h73q29 0 58 8.5t54.5 31t47.5 60t36 95.5l96 370h281l-107 -420q-24 -103 -74.5 -169t-116.5 -88q85 -29 132.5 -93.5t72.5 -168.5l116 -468h-296l-91 381q-31 112 -76.5 157.5t-122.5 45.5h-83v-584h-294zM389 1610l352 261l170 -202l-416 -197z " />
<glyph unicode="&#x40e;" horiz-adv-x="1023" d="M18 1409h305l115 -391l92 -304h10l83 306q24 99 49.5 195.5t51.5 195.5h284l-302 -987q-12 -41 -24.5 -77.5t-26.5 -70.5q-32 -91 -70 -146t-83.5 -85.5t-98.5 -41.5t-113 -13h-114v237h72q42 0 70 16t57 67q4 10 10 21.5t10 22.5zM209 1803h209q0 -23 9 -48t24 -47.5 t37.5 -37t51.5 -14.5q30 0 51 14.5t36.5 37t22.5 47.5t7 48h211q-4 -51 -23 -110.5t-58 -111.5t-99.5 -86.5t-147.5 -34.5q-92 0 -153.5 34.5t-100 86.5t-57 111t-20.5 111z" />
<glyph unicode="&#x40f;" horiz-adv-x="1132" d="M124 0v1411h294v-1133h304v1133h290v-1411h-321v-304h-246v304h-321z" />
<glyph unicode="&#x410;" horiz-adv-x="1124" d="M6 0l408 1411h292l407 -1411h-316l-69 288h-335q-18 -71 -37 -144t-40 -144h-310zM458 549h203l-38 201l-58 282h-10l-56 -280z" />
<glyph unicode="&#x411;" horiz-adv-x="1051" d="M105 0v1411h791v-272h-497v-257h179q112 0 194.5 -32.5t136.5 -89t80.5 -136.5t26.5 -174q0 -113 -31.5 -197.5t-89 -140.5t-140 -84t-181.5 -28h-469zM399 271h164q81 0 121 47t40 127q0 91 -42.5 127t-120.5 36h-162v-337z" />
<glyph unicode="&#x412;" horiz-adv-x="1098" d="M124 0v1411h456q207 0 314.5 -105.5t107.5 -291.5q0 -79 -38.5 -157.5t-127.5 -114.5v-10q48 -16 82.5 -49t57 -74.5t32.5 -88t10 -90.5q0 -103 -30.5 -183.5t-85.5 -135.5t-132 -83t-170 -28h-476zM418 278h162q87 0 119.5 48.5t32.5 119.5q0 72 -35.5 114t-114.5 42 h-164v-324zM418 857h145q81 0 116 41t35 106q0 71 -35 105t-118 34h-143v-286z" />
<glyph unicode="&#x413;" horiz-adv-x="973" d="M124 0v1411h820v-272h-526v-1139h-294z" />
<glyph unicode="&#x414;" horiz-adv-x="1292" d="M31 249l119 24q43 45 66.5 100t35 122.5t15.5 153t11 193.5l26 569h807v-1144h126v-563h-243v296h-721v-296h-242v545zM458 267h365v871h-268l-15 -362q-4 -67 -7 -140t-11.5 -140.5t-24 -127.5t-39.5 -101z" />
<glyph unicode="&#x415;" d="M124 0v1411h820v-272h-526v-292h454v-269h-454v-300h526v-278h-820z" />
<glyph unicode="&#x416;" horiz-adv-x="1694" d="M31 0l115 468q24 101 69.5 165.5t123.5 92.5l2 8q-59 26 -109 90t-72 163l-106 420h283l93 -370q28 -114 82.5 -154.5t114.5 -40.5h75v571h294v-571h72q29 0 58 8.5t55 31t48 60t36 95.5l95 370h282l-108 -420q-22 -99 -70 -163t-110 -90l2 -8q78 -29 123.5 -93 t69.5 -165l115 -468h-296l-91 381q-31 112 -76.5 157.5t-121.5 45.5h-83v-584h-294v584h-83q-77 0 -124 -45.5t-75 -157.5l-91 -381h-298z" />
<glyph unicode="&#x417;" horiz-adv-x="1037" d="M65 335q72 22 140 43t140 44q15 -70 62 -111.5t114 -41.5q38 0 68 15.5t48 39.5t27 54t9 58q0 32 -6 64t-24 56t-51 38t-83 14h-101v245h103q65 0 110.5 35t45.5 122q0 20 -7.5 43t-22 43.5t-41.5 32.5t-62 12q-72 0 -117.5 -40.5t-62.5 -104.5l-265 101 q41 150 154 239.5t299 89.5q199 0 311 -101.5t112 -285.5q0 -31 -6 -73.5t-22 -85t-49 -80.5t-83 -62v-6q48 -16 81 -50t52 -75.5t28 -90t9 -94.5q0 -116 -36.5 -197t-98.5 -133.5t-143.5 -77t-175.5 -24.5q-186 0 -303.5 93t-152.5 252z" />
<glyph unicode="&#x418;" horiz-adv-x="1195" d="M118 0v1411h292v-819h4l403 819h266v-1411h-294v768h-2l-394 -768h-275z" />
<glyph unicode="&#x419;" horiz-adv-x="1195" d="M118 0v1411h292v-819h4l403 819h266v-1411h-294v768h-2l-394 -768h-275zM284 1813h209q0 -23 9 -48.5t24.5 -47.5t37.5 -36.5t51 -14.5q30 0 51 14.5t36.5 36.5t22.5 47.5t7 48.5h210q-3 -51 -22.5 -111t-58 -112t-99 -86t-147.5 -34q-91 0 -153.5 34t-100.5 86 t-56.5 112t-20.5 111z" />
<glyph unicode="&#x41a;" horiz-adv-x="1112" d="M124 0v1413h294v-571h73q29 0 58 8.5t54.5 31t47.5 60t36 95.5l96 370h281l-107 -420q-24 -103 -74.5 -169t-116.5 -88q85 -29 132.5 -93.5t72.5 -168.5l116 -468h-296l-91 381q-31 112 -76.5 157.5t-122.5 45.5h-83v-584h-294z" />
<glyph unicode="&#x41b;" horiz-adv-x="1175" d="M25 201q79 27 122.5 68t66 100t27.5 139t5 185v718h794v-1411h-290v1138h-239v-436q0 -155 -14.5 -280.5t-59 -218.5t-126.5 -153t-218 -81z" />
<glyph unicode="&#x41c;" horiz-adv-x="1382" d="M118 0v1411h269l164 -393l140 -353h11l136 355l162 391h275v-1411h-292v665l-8 2l-97 -253l-75 -183h-211l-79 195l-95 243l-8 -2v-667h-292z" />
<glyph unicode="&#x41d;" horiz-adv-x="1149" d="M122 0v1411h294v-564h320v564h290v-1411h-290v580h-320v-580h-294z" />
<glyph unicode="&#x41e;" horiz-adv-x="1084" d="M89 466v503q0 79 24.5 159.5t79.5 145t141 106.5t210 42q115 0 200.5 -40t140 -103.5t82 -145t27.5 -164.5v-524q0 -105 -33.5 -190t-93.5 -145t-142 -91t-181 -31q-122 0 -208.5 38.5t-141 104.5t-80 153t-25.5 182zM381 458q0 -81 37.5 -134t125.5 -53q62 0 108 40.5 t46 112.5v557q0 20 -7.5 46.5t-26 51t-47.5 42t-73 17.5q-45 0 -75.5 -15.5t-50 -39t-28.5 -50.5t-9 -52v-523z" />
<glyph unicode="&#x41f;" horiz-adv-x="1134" d="M124 0v1411h888v-1411h-290v1136h-304v-1136h-294z" />
<glyph unicode="&#x420;" horiz-adv-x="1051" d="M124 0v1411h448q99 0 183.5 -26.5t144 -81t93 -138.5t33.5 -200q0 -101 -30.5 -184t-87.5 -142t-138 -91.5t-182 -32.5h-170v-515h-294zM418 789h156q66 0 115 40.5t49 139.5q0 91 -45 130.5t-121 39.5h-154v-350z" />
<glyph unicode="&#x421;" horiz-adv-x="1041" d="M91 466v503q0 79 24.5 159.5t78.5 145t140 106.5t210 42q97 0 174 -30t131.5 -78.5t89 -112t48.5 -133.5l-277 -83q-4 20 -13.5 47.5t-30 50t-50.5 39t-72 16.5q-45 0 -75.5 -15.5t-48.5 -39t-26.5 -50.5t-8.5 -52v-523q0 -81 35.5 -134t123.5 -53q60 0 107 39.5 t55 109.5l279 -81q-31 -165 -150 -258t-291 -93q-122 0 -208.5 38.5t-140 104.5t-79 153t-25.5 182z" />
<glyph unicode="&#x422;" horiz-adv-x="927" d="M12 1143v268h897v-268h-303v-1143h-292v1143h-302z" />
<glyph unicode="&#x423;" horiz-adv-x="1023" d="M18 1409h305l115 -391l92 -304h10l83 306q24 99 49.5 195.5t51.5 195.5h284l-302 -987q-12 -41 -24.5 -77.5t-26.5 -70.5q-32 -91 -70 -146t-83.5 -85.5t-98.5 -41.5t-113 -13h-114v237h72q42 0 70 16t57 67q4 10 10 21.5t10 22.5z" />
<glyph unicode="&#x424;" horiz-adv-x="1414" d="M89 726q0 112 19.5 214t72.5 184.5t145 137t239 71.5v78h282v-78q140 -8 232.5 -61t146 -135.5t76 -186t22.5 -212.5q0 -116 -17 -222t-69 -189t-145 -137t-246 -66v-124h-282v124q-152 12 -246 65t-144.5 134t-68 185t-17.5 218zM375 734q0 -61 3 -123t21.5 -111.5 t57 -82t108.5 -38.5v693q-58 -6 -94.5 -34t-58 -72.5t-29.5 -104.5t-8 -127zM847 379q70 6 109.5 37.5t58.5 82t23 112.5t4 130q0 67 -8 125.5t-30.5 102t-60 70.5t-96.5 33v-693z" />
<glyph unicode="&#x425;" horiz-adv-x="1093" d="M2 0l385 728l-360 683h338q45 -97 88.5 -194.5t88.5 -192.5l182 387h338l-364 -683l389 -728h-339l-203 430l-206 -430h-337z" />
<glyph unicode="&#x426;" horiz-adv-x="1197" d="M122 0v1411h294v-1142h318v1142h292v-1144h148v-565h-243v298h-809z" />
<glyph unicode="&#x427;" horiz-adv-x="1106" d="M95 894v517h290v-407q0 -130 34.5 -180t120.5 -50q34 0 78.5 10.5t74.5 26.5v600h292v-1411h-292v559q-50 -22 -110 -31t-117 -9q-79 0 -147 20t-117.5 64.5t-78 116t-28.5 174.5z" />
<glyph unicode="&#x428;" horiz-adv-x="1629" d="M124 0v1411h294v-1144h251v1144h294v-1144h254v1144h292v-1411h-1385z" />
<glyph unicode="&#x429;" horiz-adv-x="1690" d="M122 0v1411h294v-1142h253v1142h294v-1142h254v1142h292v-1144h147v-565h-243v298h-1291z" />
<glyph unicode="&#x42a;" horiz-adv-x="1331" d="M25 1139v272h658v-529h180q112 0 195 -32.5t136 -89t79.5 -136.5t26.5 -174q0 -111 -31.5 -195.5t-89 -141.5t-140 -85t-182.5 -28h-468v1139h-364zM683 271h164q82 0 121.5 48t39.5 126q0 91 -42.5 127t-120.5 36h-162v-337z" />
<glyph unicode="&#x42b;" horiz-adv-x="1560" d="M122 0v1411h294v-529h180q112 0 195 -32.5t135.5 -89t79 -136.5t26.5 -174q0 -113 -31.5 -197.5t-89.5 -140.5t-140 -84t-181 -28h-468zM416 271h164q81 0 121 47t40 127q0 91 -43 127t-120 36h-162v-337zM1143 0v1411h294v-1411h-294z" />
<glyph unicode="&#x42c;" horiz-adv-x="1064" d="M124 0v1411h294v-529h178q112 0 195 -32.5t136.5 -89t80 -136.5t26.5 -174q0 -111 -32.5 -195.5t-90.5 -141.5t-140 -85t-181 -28h-466zM416 271h164q81 0 121.5 48t40.5 126q0 91 -43.5 127t-120.5 36h-162v-337z" />
<glyph unicode="&#x42d;" horiz-adv-x="1051" d="M62 339l281 81q7 -70 54.5 -112.5t107.5 -42.5q87 0 122.5 56t35.5 137v128h-313v263h313v132q0 25 -3 53t-18 52.5t-46 40.5t-83 16q-43 0 -74 -17t-52.5 -41.5t-33.5 -51.5t-14 -48l-274 83q14 70 48.5 133.5t91 112t134 78.5t174.5 30q130 0 216 -42t137 -106.5 t71 -145t20 -159.5v-503q0 -95 -25.5 -182t-79 -153t-139.5 -104.5t-208 -38.5q-172 0 -292 93t-151 258z" />
<glyph unicode="&#x42e;" horiz-adv-x="1485" d="M116 0v1411h294v-564h117v120q0 99 27.5 183.5t82 144t135.5 93.5t189 34q223 0 328.5 -122t105.5 -333v-525q0 -217 -113.5 -335.5t-322.5 -118.5q-112 0 -193 33t-134.5 93t-79 143.5t-25.5 184.5v138h-117v-580h-294zM813 428q0 -72 34.5 -117.5t109.5 -45.5 q74 0 111 43.5t37 119.5v555q0 71 -36 114.5t-110 43.5q-75 0 -110.5 -45.5t-35.5 -112.5v-555z" />
<glyph unicode="&#x42f;" horiz-adv-x="1124" d="M60 0l92 422q16 69 52 127.5t102 85.5q-105 42 -153 135t-48 215q0 103 33.5 182.5t91.5 134t137 82t169 27.5h472v-1411h-294v572h-87q-70 0 -113.5 -49t-71.5 -160l-79 -363h-303zM399 977q0 -44 14.5 -71.5t38.5 -43t56 -20t68 -4.5h138v301h-149q-166 0 -166 -162z " />
<glyph unicode="&#x430;" horiz-adv-x="936" d="M65 300q0 62 21.5 118t64 98.5t106.5 67t151 24.5h161v59q0 33 -24 65t-93 32q-52 0 -92.5 -17t-69.5 -66l-205 130q57 112 153.5 157.5t221.5 45.5q85 0 158 -16.5t125 -54t81 -99t29 -155.5v-689h-284v81l-8 2q-38 -50 -96.5 -71.5t-106.5 -21.5q-148 0 -220.5 79 t-72.5 231zM341 321q0 -29 23 -56t84 -27q49 0 85 28t36 82v62h-123q-56 0 -80.5 -24.5t-24.5 -64.5z" />
<glyph unicode="&#x431;" horiz-adv-x="923" d="M67 555q0 97 3 176.5t11 148.5q10 91 30.5 160t52 123t77 94.5t107.5 72.5q43 19 79.5 35t78 30t93 32t125.5 49q22 -52 44.5 -105t44.5 -106q-91 -40 -159 -66.5t-118 -49.5q-47 -19 -79.5 -39.5t-55 -49t-35 -66t-18.5 -90.5l6 -4q39 35 86.5 46t78.5 11 q87 0 146 -28.5t99 -75.5q53 -65 73 -156t20 -196q0 -160 -30 -260.5t-91 -159.5q-53 -50 -124.5 -72.5t-166.5 -22.5q-108 0 -177 27.5t-110 77.5q-58 71 -74.5 195t-16.5 269zM352 468q0 -46 4.5 -86.5t16.5 -69.5t33.5 -46t57.5 -17q68 0 87 53q16 31 19.5 74.5t3.5 87.5 q0 124 -21 177q-21 57 -89 57q-26 0 -48.5 -12.5t-40.5 -46.5q-10 -18 -16.5 -55t-6.5 -116z" />
<glyph unicode="&#x432;" horiz-adv-x="925" d="M95 0v1004h414q174 0 258 -74.5t84 -207.5q0 -61 -26 -119t-95 -82q71 -29 103 -88.5t32 -118.5q0 -144 -93 -229t-242 -85h-435zM371 240h118q37 0 66 24t29 71q0 42 -27 63.5t-68 21.5h-118v-180zM371 617h101q37 0 66 18.5t29 59.5q0 47 -31 63t-64 16h-101v-157z" />
<glyph unicode="&#x433;" horiz-adv-x="820" d="M95 0v1004h712v-248h-436v-756h-276z" />
<glyph unicode="&#x434;" horiz-adv-x="1106" d="M35 238l109 17q24 27 41.5 52.5t28.5 56.5t18.5 72.5t11.5 99.5l25 468h684v-753h113v-520h-234v269h-563v-269h-234v507zM432 249h241v507h-168q-6 -184 -20.5 -313t-52.5 -194z" />
<glyph unicode="&#x435;" horiz-adv-x="940" d="M73 501q0 118 20.5 213t67 161.5t123.5 103.5t192 37q122 0 199 -40.5t121 -108.5t60 -159t16 -195v-79h-511v-16q0 -35 4 -65t16 -53.5t33.5 -37t55.5 -13.5q43 0 77.5 19.5t69.5 70.5l236 -128q-52 -114 -155.5 -167.5t-225.5 -53.5q-112 0 -187.5 34t-123 100.5 t-68 160.5t-20.5 216zM361 612h213q0 27 -4.5 53t-15 46.5t-32 32.5t-56.5 12q-28 0 -48.5 -13t-32.5 -33.5t-17 -46.5t-7 -51z" />
<glyph unicode="&#x436;" horiz-adv-x="1441" d="M37 0l83 323q18 71 52.5 122.5t94.5 71.5v8q-50 18 -85.5 67t-51.5 118l-76 292h273l58 -238q12 -48 28.5 -76.5t35.5 -43.5t40.5 -19t42.5 -4h48v383h281v-383h50q20 0 41 4t40.5 19t36.5 43.5t29 76.5l59 238h272l-75 -292q-16 -69 -52.5 -117.5t-87.5 -67.5v-8 q59 -23 95.5 -73.5t52.5 -120.5l85 -323h-285l-54 238q-12 48 -27 78t-33.5 47.5t-41 22.5t-47.5 5h-58v-391h-281v391h-57q-29 0 -50 -5t-39 -22.5t-32.5 -47.5t-26.5 -78l-54 -238h-284z" />
<glyph unicode="&#x437;" horiz-adv-x="857" d="M37 203l214 113q16 -39 63 -62t94 -23q48 0 73.5 26.5t25.5 61.5q0 54 -30.5 75.5t-79.5 21.5h-103v194h116q46 0 68.5 24.5t22.5 65.5q0 35 -26.5 53.5t-72.5 18.5q-35 0 -77.5 -24t-67.5 -53l-190 120q47 95 140 148t219 53q172 0 265.5 -74t93.5 -220 q0 -47 -26.5 -108t-101.5 -95l-2 -6q78 -29 107 -84.5t29 -126.5q0 -151 -103.5 -231.5t-273.5 -80.5q-153 0 -241 54.5t-136 158.5z" />
<glyph unicode="&#x438;" horiz-adv-x="1017" d="M93 0v1004h274v-532h4l306 532h250v-1004h-275v484h-6l-298 -484h-255z" />
<glyph unicode="&#x439;" horiz-adv-x="1017" d="M93 0v1004h274v-532h4l306 532h250v-1004h-275v484h-6l-298 -484h-255zM182 1434h209q0 -23 9.5 -48.5t24.5 -47.5t37 -36.5t51 -14.5q31 0 52 14.5t36.5 36.5t22.5 47.5t7 48.5h211q-4 -51 -23.5 -110t-58 -109.5t-99.5 -84t-148 -33.5q-91 0 -153 33.5t-100.5 84 t-57 109.5t-20.5 110z" />
<glyph unicode="&#x43a;" horiz-adv-x="958" d="M101 0v1000h282v-381h45q19 0 41 4t41.5 19t36 44.5t29.5 77.5l59 238h271l-74 -292q-18 -73 -58 -122.5t-95 -66.5q67 -16 104.5 -70t56.5 -128l85 -323h-286l-53 238q-12 48 -27 78t-33.5 47.5t-41 22.5t-48.5 5h-53v-391h-282z" />
<glyph unicode="&#x43b;" d="M23 186q62 18 97.5 43.5t54 66.5t23.5 103.5t5 155.5v449h689v-1004h-280v754h-156v-212q0 -140 -19 -242.5t-63.5 -172t-118 -105.5t-180.5 -45z" />
<glyph unicode="&#x43c;" horiz-adv-x="1167" d="M93 0v1004h250l139 -290l104 -211h4l99 213l141 288h255v-1004h-278v424h-4l-55 -122l-63 -142h-190l-67 142l-55 122h-4v-424h-276z" />
<glyph unicode="&#x43d;" horiz-adv-x="966" d="M95 0v1004h276v-389h227v389h276v-1004h-276v399h-227v-399h-276z" />
<glyph unicode="&#x43e;" horiz-adv-x="930" d="M73 499q2 85 10 171t31 139q42 97 130.5 153t229.5 56q140 0 222 -54.5t117 -137.5q29 -66 36.5 -148t7.5 -179q0 -108 -10.5 -186.5t-39.5 -138.5q-53 -108 -145.5 -148t-207.5 -40q-103 0 -175 32t-119 92q-48 65 -67.5 160t-19.5 229zM354 495q0 -50 3.5 -97.5 t17.5 -81.5q25 -69 91 -68q14 0 29.5 2.5t30 14t25 33t16.5 54.5q4 29 7.5 70.5t3.5 96.5q0 105 -21 164q-26 73 -87 73q-67 0 -95 -71q-12 -35 -16.5 -80.5t-4.5 -109.5z" />
<glyph unicode="&#x43f;" horiz-adv-x="977" d="M101 0v1006h773v-1006h-286v785h-205v-785h-282z" />
<glyph unicode="&#x440;" horiz-adv-x="946" d="M97 -408v1412h284v-71l6 -4q35 44 84.5 64.5t93.5 20.5q112 0 175 -50.5t94 -128t39.5 -168.5t8.5 -172q0 -91 -10.5 -181.5t-43.5 -162.5t-96 -117.5t-169 -45.5q-19 0 -43.5 6t-49 17.5t-45.5 26t-36 35.5l-8 -2v-479h-284zM381 505q0 -41 3 -85.5t13.5 -81t31.5 -61 t58 -24.5t57.5 23.5t32 59t14.5 79t3 84.5q0 54 -3 100.5t-14.5 79.5t-31.5 51t-54 18q-67 0 -88.5 -62.5t-21.5 -180.5z" />
<glyph unicode="&#x441;" horiz-adv-x="855" d="M58 497q0 110 19.5 205t65 165t121 109.5t186.5 39.5q128 0 223 -59t136 -174l-240 -116q-23 49 -46.5 69t-58.5 20q-77 0 -98 -70.5t-21 -188.5q0 -128 23 -188t96 -60q37 0 61 21.5t47 66.5l239 -118q-41 -112 -135 -170.5t-222 -58.5q-113 0 -189.5 37.5t-122 105.5 t-65 161t-19.5 203z" />
<glyph unicode="&#x442;" horiz-adv-x="799" d="M10 774v230h773v-230h-249v-774h-277v774h-247z" />
<glyph unicode="&#x443;" horiz-adv-x="895" d="M2 1004h304l69 -325l63 -277h10l65 275l81 327h296l-375 -1180q-39 -122 -117.5 -176t-192.5 -54h-100v244h59q84 0 114 104l32 110z" />
<glyph unicode="&#x444;" horiz-adv-x="1283" d="M81 470q0 89 10 170.5t35 139.5q40 97 142.5 161.5t234.5 70.5v429h271v-429q126 -4 208 -46.5t131 -111.5t69 -160.5t20 -192.5q0 -140 -33 -236.5t-91 -155.5t-135.5 -86t-166.5 -33v-379h-273v377q-108 6 -186.5 36t-131.5 88t-78.5 146t-25.5 212zM365 487 q0 -128 30.5 -183.5t107.5 -59.5v508q-35 -6 -61 -22t-43.5 -47t-25.5 -79.5t-8 -116.5zM774 244q85 5 113 70t28 175q0 79 -8.5 127.5t-26 78t-43.5 41.5t-63 16v-508z" />
<glyph unicode="&#x445;" horiz-adv-x="950" d="M6 0l310 511l-298 493h328l126 -272h2l126 272h325l-302 -493l316 -511h-329q-35 71 -69 144t-69 144l-139 -288h-327z" />
<glyph unicode="&#x446;" horiz-adv-x="1045" d="M103 0v1004h280v-751h223v751h282v-751h130v-520h-235v267h-680z" />
<glyph unicode="&#x447;" horiz-adv-x="921" d="M67 617v387h283v-263q0 -70 16.5 -108.5t81.5 -38.5q25 0 53.5 7t53.5 18v385h281v-1004h-281v389q-48 -16 -103 -26.5t-109 -10.5q-59 0 -110 15.5t-87 48t-57.5 82t-21.5 119.5z" />
<glyph unicode="&#x448;" horiz-adv-x="1430" d="M103 0v1004h278v-749h197v749h279v-749h197v749h276v-1004h-1227z" />
<glyph unicode="&#x449;" horiz-adv-x="1489" d="M103 0v1004h278v-751h197v751h279v-751h197v751h279v-751h129v-520h-237v267h-1122z" />
<glyph unicode="&#x44a;" horiz-adv-x="1118" d="M23 764v240h579v-335h124q101 0 171 -25t113.5 -68.5t63 -103.5t19.5 -127q0 -82 -28 -145.5t-77 -108t-115 -68t-139 -23.5h-409v764h-302zM600 231h116q54 0 82 28.5t28 75.5q0 40 -24 72.5t-82 32.5h-120v-209z" />
<glyph unicode="&#x44b;" horiz-adv-x="1323" d="M97 0v1004h278v-335h124q101 0 171.5 -25t114 -68.5t62 -103.5t18.5 -127q0 -82 -28 -145.5t-76.5 -108t-114.5 -68t-139 -23.5h-410zM373 231h116q55 0 82 28.5t27 75.5q0 40 -23.5 72.5t-81.5 32.5h-120v-209zM951 0v1004h276v-1004h-276z" />
<glyph unicode="&#x44c;" horiz-adv-x="897" d="M89 0v1004h278v-335h124q101 0 171 -25t113.5 -68.5t62.5 -103.5t19 -127q0 -82 -28 -145.5t-76.5 -108t-114.5 -68t-139 -23.5h-410zM365 231h115q55 0 82.5 28.5t27.5 75.5q0 40 -23 72.5t-83 32.5h-119v-209z" />
<glyph unicode="&#x44d;" horiz-adv-x="865" d="M45 227l228 106q16 -47 46.5 -65.5t63.5 -18.5q63 0 90.5 45t31.5 110h-215v204h215q-6 69 -30.5 109.5t-89.5 40.5q-31 0 -61 -21t-51 -70q-54 27 -107.5 53t-109.5 54q47 116 139.5 178t214.5 62q110 0 183.5 -33t119 -97.5t66 -160.5t20.5 -224q0 -116 -22.5 -210 t-71 -161.5t-127.5 -102.5t-193 -35q-128 0 -216 62t-124 175z" />
<glyph unicode="&#x44e;" horiz-adv-x="1315" d="M91 0v1004h276v-389h97q4 56 13.5 106.5t25.5 85.5q41 97 133 153t221 56q136 0 217 -55t116 -138q27 -66 37 -146.5t10 -177.5q0 -108 -12 -186.5t-41 -138.5q-52 -108 -141.5 -148t-204.5 -40q-103 0 -173.5 32t-115.5 92q-40 50 -60.5 121t-28.5 168h-93v-399h-276z M741 495q0 -50 2.5 -95.5t16.5 -78.5q25 -70 89 -70q14 0 29.5 3t29 14.5t24 33t16.5 54.5q4 29 6.5 68.5t2.5 92.5q0 52 -4.5 90.5t-13.5 69.5q-27 73 -86 73q-65 0 -93 -71q-12 -35 -15.5 -78.5t-3.5 -105.5z" />
<glyph unicode="&#x44f;" horiz-adv-x="948" d="M49 0l71 276q14 53 40 93.5t74 64.5q-86 32 -120.5 97t-36.5 142q0 159 96 245t259 86h423v-1004h-283v375h-55q-45 0 -80 -30.5t-56 -119.5l-50 -225h-282zM352 669q0 -46 33 -62.5t79 -16.5h108v174h-114q-42 0 -74 -21t-32 -74z" />
<glyph unicode="&#x451;" horiz-adv-x="940" d="M73 501q0 118 20.5 213t67 161.5t123.5 103.5t192 37q122 0 199 -40.5t121 -108.5t60 -159t16 -195v-79h-511v-16q0 -35 4 -65t16 -53.5t33.5 -37t55.5 -13.5q43 0 77.5 19.5t69.5 70.5l236 -128q-52 -114 -155.5 -167.5t-225.5 -53.5q-112 0 -187.5 34t-123 100.5 t-68 160.5t-20.5 216zM140 1145v264h270v-264h-270zM361 612h213q0 27 -4.5 53t-15 46.5t-32 32.5t-56.5 12q-28 0 -48.5 -13t-32.5 -33.5t-17 -46.5t-7 -51zM538 1145v264h271v-264h-271z" />
<glyph unicode="&#x452;" horiz-adv-x="1039" d="M2 1139v165h124v168h284v-168h314v-165h-312v-235h4q40 46 102 72t115 26q93 0 154.5 -31t100.5 -93.5t55 -157.5t16 -225q0 -265 -90.5 -390t-299.5 -132h-58v232q50 2 82 20.5t48 54.5t22 94t6 139q0 42 -4 83t-17 73.5t-37.5 52.5t-65.5 20q-71 0 -102 -61.5 t-31 -169.5q0 -128 -1 -255.5t-1 -255.5h-284v1139h-124z" />
<glyph unicode="&#x453;" horiz-adv-x="820" d="M79 0v1004h712v-248h-439v-756h-273zM300 1155l187 396l245 -98l-276 -370z" />
<glyph unicode="&#x454;" horiz-adv-x="859" d="M60 499q0 517 416 517q126 0 214 -57t131 -166l-221 -114q-25 43 -57 61t-61 18q-52 0 -83.5 -30t-42.5 -120h220v-204h-222q10 -85 40 -120t86 -35q31 0 61.5 18.5t54.5 65.5l232 -120q-47 -103 -137.5 -163t-212.5 -60q-120 0 -199.5 36t-128.5 102.5t-69.5 160.5 t-20.5 210z" />
<glyph unicode="&#x455;" horiz-adv-x="895" d="M50 170l198 167q38 -57 85.5 -79t106.5 -22q56 0 86.5 24t30.5 52q0 34 -22 51.5t-75 27.5q-67 12 -136 31.5t-123.5 54t-90 88.5t-35.5 137q0 73 30.5 130.5t82.5 98t119.5 62t144.5 21.5q136 0 224 -40.5t154 -112.5l-171 -178q-38 45 -83.5 65t-111.5 20 q-58 0 -80.5 -20t-22.5 -40q0 -18 12 -30.5t32.5 -21t43.5 -14t48 -9.5q69 -14 132.5 -34.5t112.5 -57t77 -92.5t28 -139q0 -144 -106 -232t-293 -88q-137 0 -231.5 41.5t-166.5 138.5z" />
<glyph unicode="&#x456;" horiz-adv-x="512" d="M116 0v1004h283v-1004h-283zM116 1153v258h283v-258h-283z" />
<glyph unicode="&#x457;" horiz-adv-x="512" d="M-75 1132v263h270v-263h-270zM116 0v1004h283v-1004h-283zM323 1132v263h271v-263h-271z" />
<glyph unicode="&#x458;" horiz-adv-x="518" d="M-23 -146h52q56 0 73.5 40.5t17.5 91.5v1020h284v-1095q0 -155 -96.5 -234t-258.5 -79h-72v256zM120 1153v258h284v-258h-284z" />
<glyph unicode="&#x459;" horiz-adv-x="1391" d="M20 186q44 14 75 31t52 40t32.5 55.5t15.5 76.5q6 62 6 151v464h667v-335h123q101 0 172.5 -25t115 -68.5t62.5 -103.5t19 -127q0 -96 -29 -160.5t-82 -106t-129 -60t-167 -18.5h-365v754h-134v-212q0 -35 -1 -68.5t-3 -65.5q-9 -209 -103 -313.5t-274 -117.5zM868 248 h105q47 0 76.5 23t29.5 64q0 40 -25.5 65.5t-82.5 25.5h-103v-178z" />
<glyph unicode="&#x45a;" horiz-adv-x="1347" d="M87 0v1004h276v-339h181v339h275v-339h123q103 0 173.5 -25t114 -67.5t63 -101.5t19.5 -126q0 -159 -96.5 -252t-275.5 -93h-396v436h-181v-436h-276zM819 234h116q54 0 81.5 26t27.5 73q0 103 -111 103h-114v-202z" />
<glyph unicode="&#x45b;" horiz-adv-x="1006" d="M8 1139v165h126v168h284v-168h302v-165h-302v-222l10 -2q34 34 94 61.5t113 27.5q139 0 205 -86t66 -229v-689h-283v623q0 58 -27 85.5t-69 27.5q-45 0 -77 -33.5t-32 -92.5v-610h-284v1139h-126z" />
<glyph unicode="&#x45c;" horiz-adv-x="958" d="M101 0v1000h282v-381h45q19 0 41 4t41.5 19t36 44.5t29.5 77.5l59 238h271l-74 -292q-18 -73 -58 -122.5t-95 -66.5q67 -16 104.5 -70t56.5 -128l85 -323h-286l-53 238q-12 48 -27 78t-33.5 47.5t-41 22.5t-48.5 5h-53v-391h-282zM314 1155l189 396l243 -98l-274 -370z " />
<glyph unicode="&#x45e;" horiz-adv-x="895" d="M2 1004h304l69 -325l63 -277h10l65 275l81 327h296l-375 -1180q-39 -122 -117.5 -176t-192.5 -54h-100v244h59q84 0 114 104l32 110zM124 1441h209q0 -22 8.5 -47.5t24 -47.5t38 -36t50.5 -14q31 0 52 14t36 36t22.5 48t7.5 47h211q-4 -50 -23 -110t-58 -111.5t-99.5 -86 t-148.5 -34.5q-91 0 -152.5 34.5t-100.5 86t-57 111.5t-20 110z" />
<glyph unicode="&#x45f;" horiz-adv-x="973" d="M101 0v1004h276v-751h225v751h276v-1004h-274v-284h-235v284h-268z" />
<glyph unicode="&#x490;" horiz-adv-x="973" d="M124 0v1411h588v241h232v-513h-526v-1139h-294z" />
<glyph unicode="&#x491;" horiz-adv-x="820" d="M95 0v1004h491v223h221v-471h-430v-756h-282z" />
<glyph unicode="&#x4d9;" horiz-adv-x="940" d="M73 493v79h511v16q0 35 -4 65t-16.5 53.5t-33.5 36.5t-56 13q-42 0 -76.5 -19t-68.5 -70l-238 128q53 114 159 167.5t228 53.5q112 0 188 -35t122 -100.5t65 -159.5t19 -216q0 -120 -20 -215t-67 -162.5t-124 -102.5t-193 -35q-122 0 -198.5 40.5t-120.5 108.5t-60 159 t-16 195zM371 393q0 -27 4 -53t15.5 -46.5t33 -32.5t54.5 -12q29 0 48 13.5t31 33.5t18.5 46.5t8.5 50.5h-213z" />
<glyph unicode="&#x2013;" horiz-adv-x="1013" d="M41 446v235h926v-235h-926z" />
<glyph unicode="&#x2014;" horiz-adv-x="2027" d="M41 446v235h1944v-235h-1944z" />
<glyph unicode="&#x2018;" horiz-adv-x="589" d="M126 830v313l166 315h150l-71 -303h65v-325h-310z" />
<glyph unicode="&#x2019;" horiz-adv-x="589" d="M126 832l73 302h-67v326h310v-315l-164 -313h-152z" />
<glyph unicode="&#x201a;" horiz-adv-x="540" d="M112 -308l72 304h-66v325h310v-315l-165 -314h-151z" />
<glyph unicode="&#x201c;" horiz-adv-x="849" d="M75 830v313l167 315h149l-70 -303h64v-325h-310zM458 830v313l165 315h151l-72 -303h66v-325h-310z" />
<glyph unicode="&#x201d;" horiz-adv-x="849" d="M75 832l73 302h-67v326h310v-315l-164 -313h-152zM458 832l74 302h-68v326h310v-315l-164 -313h-152z" />
<glyph unicode="&#x201e;" horiz-adv-x="1021" d="M112 -308l72 304h-66v325h310v-315l-165 -314h-151zM588 -308l71 304h-65v325h308v-315l-164 -314h-150z" />
<glyph unicode="&#x2022;" horiz-adv-x="952" d="M174 569q0 66 24.5 123.5t67 100.5t99.5 67t122 24t121.5 -24t98 -67t66 -100.5t24.5 -123.5q0 -65 -24.5 -121.5t-66 -99t-98.5 -67t-121 -24.5q-65 0 -122 24.5t-99.5 67t-67 99t-24.5 121.5z" />
<glyph unicode="&#x2026;" horiz-adv-x="1892" d="M134 0v321h308v-321h-308zM801 0v321h308v-321h-308zM1447 0v321h309v-321h-309z" />
<glyph unicode="&#x2039;" horiz-adv-x="749" d="M95 476l266 420h274l-262 -420l262 -420h-274z" />
<glyph unicode="&#x203a;" horiz-adv-x="749" d="M93 56l263 420l-263 420h274l266 -420l-266 -420h-274z" />
<glyph unicode="&#x20ac;" d="M95 438v138h69v47h-69v137h69v63q0 67 21.5 136t68 124.5t120.5 91.5t179 36q86 0 151.5 -26t113 -68.5t78.5 -98t43 -116.5l-248 -74q-4 17 -12 40.5t-24 43t-41.5 33.5t-60.5 14q-36 0 -60.5 -12t-39.5 -31.5t-21 -42t-6 -41.5v-72h272v-137h-272v-47h272v-138h-272 v-47q0 -65 28 -107t99 -42q53 0 89.5 33t44.5 92l250 -71q-29 -144 -131 -225t-253 -81q-103 0 -177 32t-121.5 89t-69 131t-21.5 157v39h-69z" />
<glyph unicode="&#x2122;" horiz-adv-x="1761" d="M83 1231v180h617v-180h-211v-651h-195v651h-211zM785 580v829h225l103 -237q25 -54 46 -109t43 -108h5l87 215l105 239h225v-829h-190v488h-6l-82 -215l-85 -203h-116q-22 53 -43 103t-44 100l-81 215h-6v-488h-186z" />
<glyph unicode="&#xe000;" horiz-adv-x="1053" d="M0 0v1054h1054v-1054h-1054z" />
</font>
</defs>
</svg>
